<?xml version="1.0" encoding="UTF-8" standalone="no"?>
<!-- Generator: Adobe Illustrator 19.0.0, SVG Export Plug-In . SVG Version: 6.00 Build 0)  -->

<svg
   xmlns:dc="http://purl.org/dc/elements/1.1/"
   xmlns:cc="http://creativecommons.org/ns#"
   xmlns:rdf="http://www.w3.org/1999/02/22-rdf-syntax-ns#"
   xmlns:svg="http://www.w3.org/2000/svg"
   xmlns="http://www.w3.org/2000/svg"
   xmlns:sodipodi="http://sodipodi.sourceforge.net/DTD/sodipodi-0.dtd"
   xmlns:inkscape="http://www.inkscape.org/namespaces/inkscape"
   version="1.1"
   id="Capa_1"
   x="0px"
   y="0px"
   viewBox="0 0 512 512"
   style="enable-background:new 0 0 512 512;"
   xml:space="preserve"
   sodipodi:docname="css3.svg"
   inkscape:version="0.92.3 (2405546, 2018-03-11)"><metadata
   id="metadata43"><rdf:RDF><cc:Work
       rdf:about=""><dc:format>image/svg+xml</dc:format><dc:type
         rdf:resource="http://purl.org/dc/dcmitype/StillImage" /></cc:Work></rdf:RDF></metadata><defs
   id="defs41" /><sodipodi:namedview
   pagecolor="#ffffff"
   bordercolor="#666666"
   borderopacity="1"
   objecttolerance="10"
   gridtolerance="10"
   guidetolerance="10"
   inkscape:pageopacity="0"
   inkscape:pageshadow="2"
   inkscape:window-width="1920"
   inkscape:window-height="1052"
   id="namedview39"
   showgrid="false"
   inkscape:zoom="0.921875"
   inkscape:cx="71.758976"
   inkscape:cy="362.96708"
   inkscape:window-x="0"
   inkscape:window-y="0"
   inkscape:window-maximized="1"
   inkscape:current-layer="Capa_1" />

<g
   id="g8">
</g>
<g
   id="g10">
</g>
<g
   id="g12">
</g>
<g
   id="g14">
</g>
<g
   id="g16">
</g>
<g
   id="g18">
</g>
<g
   id="g20">
</g>
<g
   id="g22">
</g>
<g
   id="g24">
</g>
<g
   id="g26">
</g>
<g
   id="g28">
</g>
<g
   id="g30">
</g>
<g
   id="g32">
</g>
<g
   id="g34">
</g>
<g
   id="g36">
</g>
<path
   style="opacity:1;fill:#2962ff;fill-opacity:1;stroke:#0000ff;stroke-width:1.08645391;stroke-miterlimit:4;stroke-dasharray:none;stroke-dashoffset:0;stroke-opacity:1"
   d="M 164.72998,486.20394 C 114.94529,472.22549 74.102816,460.67904 73.968932,460.54515 73.419699,459.99593 33.184691,1.8754245 33.645238,1.4148777 33.92035,1.1397657 134.4356,1.0378759 257.01246,1.1884556 l 222.867,0.2737814 -20.32884,229.278443 c -11.18085,126.10315 -20.53902,229.48864 -20.79593,229.74554 -0.53211,0.53211 -182.13263,51.38105 -182.96472,51.23093 -0.29831,-0.0538 -41.2753,-11.53477 -91.05999,-25.51321 z m 150.23486,-87.25249 c 30.9928,-8.51929 56.75713,-15.83661 57.25404,-16.2607 0.49692,-0.42409 6.44435,-62.94349 13.21652,-138.93199 6.77216,-75.98852 12.59359,-140.72364 12.93649,-143.855845 L 398.99536,94.208 H 256.58568 114.176 l 1.85679,26.30509 c 1.02123,14.4678 1.88776,26.74465 1.92562,27.28191 0.0406,0.57646 44.87501,0.73952 109.38741,0.39785 l 109.31856,-0.57897 -2.02553,27.80554 c -1.11405,15.29304 -2.25241,28.03529 -2.52971,28.31611 -0.52477,0.53145 -7.41902,0.64036 -131.93102,2.08415 -41.6238,0.48264 -75.91104,1.10895 -76.19386,1.39178 -0.28283,0.28282 0.70182,11.85564 2.18811,25.71737 1.48629,13.86173 2.70234,25.90669 2.70234,26.76658 0,1.35004 13.54805,1.56344 99.25424,1.56344 54.58983,0 99.26702,0.3661 99.28265,0.81356 0.17457,5 -8.25914,74.88001 -9.14207,75.74933 -1.05746,1.04115 -59.22054,17.08641 -61.93719,17.08641 -1.74584,0 -59.96459,-15.81435 -61.33365,-16.66048 -0.93097,-0.57538 -4.89806,-34.56507 -5.3458,-45.80238 -0.0178,-0.44746 -12.96801,-0.81356 -28.77818,-0.81356 -26.57259,0 -28.74576,0.14246 -28.74576,1.88435 0,3.61253 7.79119,88.6948 8.15605,89.06679 0.83139,0.8476 116.13825,32.54751 117.18831,32.21716 0.62754,-0.19743 26.49872,-7.3293 57.49153,-15.84858 z"
   id="path861"
   inkscape:connector-curvature="0" /></svg>