<?xml version="1.0" encoding="UTF-8" standalone="no"?>
<svg
   xmlns:dc="http://purl.org/dc/elements/1.1/"
   xmlns:cc="http://creativecommons.org/ns#"
   xmlns:rdf="http://www.w3.org/1999/02/22-rdf-syntax-ns#"
   xmlns:svg="http://www.w3.org/2000/svg"
   xmlns="http://www.w3.org/2000/svg"
   xmlns:sodipodi="http://sodipodi.sourceforge.net/DTD/sodipodi-0.dtd"
   xmlns:inkscape="http://www.inkscape.org/namespaces/inkscape"
   height="682pt"
   viewBox="-54 -21 682 682.66669"
   width="682pt"
   version="1.1"
   id="svg4"
   sodipodi:docname="html5.svg"
   inkscape:version="0.92.3 (2405546, 2018-03-11)">
  <metadata
     id="metadata10">
    <rdf:RDF>
      <cc:Work
         rdf:about="">
        <dc:format>image/svg+xml</dc:format>
        <dc:type
           rdf:resource="http://purl.org/dc/dcmitype/StillImage" />
      </cc:Work>
    </rdf:RDF>
  </metadata>
  <defs
     id="defs8" />
  <sodipodi:namedview
     pagecolor="#ffffff"
     bordercolor="#666666"
     borderopacity="1"
     objecttolerance="10"
     gridtolerance="10"
     guidetolerance="10"
     inkscape:pageopacity="0"
     inkscape:pageshadow="2"
     inkscape:window-width="1920"
     inkscape:window-height="1052"
     id="namedview6"
     showgrid="false"
     inkscape:zoom="0.73406393"
     inkscape:cx="312.14286"
     inkscape:cy="451.49356"
     inkscape:window-x="0"
     inkscape:window-y="0"
     inkscape:window-maximized="1"
     inkscape:current-layer="svg4" />
  <path
     style="opacity:1;fill:#2962ff;fill-opacity:1;stroke:#0000ff;stroke-width:1.0243187;stroke-miterlimit:4;stroke-dasharray:none;stroke-dashoffset:0;stroke-opacity:1"
     d="M 166.4848,607.64303 C 103.79559,590.50577 52.441724,576.38446 52.365097,576.26235 52.082348,575.81177 -2.3703788,5.2879643 -2.342507,3.0680696 l 0.028888,-2.30109332 H 283.53331 c 271.56501,0 285.84541,0.0894221 285.81638,1.78973962 -0.10337,6.0537923 -55.00016,573.1176241 -55.53459,573.6520541 -1.11419,1.1142 -228.06835,62.73253 -230.79277,62.66052 -1.40644,-0.0371 -53.84832,-14.08898 -116.53753,-31.22626 z m 195.10487,-91.50298 c 40.11855,-11.6676 73.15994,-21.43097 73.42531,-21.69635 0.35505,-0.35504 19.77715,-245.90848 19.81557,-250.52786 0.003,-0.42187 -53.83044,-0.76703 -119.63099,-0.76703 H 215.56219 l -0.47638,-2.30109 c -0.40787,-1.97024 -3.69031,-37.7115 -3.66305,-39.88562 0.005,-0.42186 55.00576,-0.76703 122.22325,-0.76703 H 455.85964 V 151.10508 102.01509 H 277.90841 c -177.37617,0 -177.951206,0.006 -177.951206,2.04911 0,1.127 5.522616,54.68358 12.272486,119.0146 6.74988,64.33103 12.2725,117.48462 12.2725,118.11911 0,0.84924 29.3074,1.15359 111.0848,1.15359 h 111.08479 l -0.64082,8.43735 c -0.35246,4.64054 -1.35098,21.09335 -2.21893,36.56182 -0.86797,15.46846 -1.89962,28.4196 -2.29259,28.7803 -1.02791,0.94355 -54.91441,18.26427 -56.82196,18.26427 -1.45406,0 -8.21483,-2.03436 -47.95307,-14.42944 l -13.03952,-4.06726 v -14.78529 -14.78529 h -50.11271 -50.1127 v 50.95805 50.95805 l 80.53827,25.13403 c 47.38296,14.78707 81.38031,24.89562 82.58369,24.55491 1.12497,-0.3185 34.86968,-10.12533 74.98823,-21.79295 z"
     id="path828"
     inkscape:connector-curvature="0" />
</svg>
