<?xml version="1.0" encoding="UTF-8" standalone="no"?>
<!-- Created with Inkscape (http://www.inkscape.org/) -->

<svg
   xmlns:dc="http://purl.org/dc/elements/1.1/"
   xmlns:cc="http://creativecommons.org/ns#"
   xmlns:rdf="http://www.w3.org/1999/02/22-rdf-syntax-ns#"
   xmlns:svg="http://www.w3.org/2000/svg"
   xmlns="http://www.w3.org/2000/svg"
   xmlns:sodipodi="http://sodipodi.sourceforge.net/DTD/sodipodi-0.dtd"
   xmlns:inkscape="http://www.inkscape.org/namespaces/inkscape"
   version="1.1"
   id="svg2"
   width="81.919998"
   height="81.919998"
   viewBox="0 0 81.919998 81.919998"
   sodipodi:docname="sql.svg"
   inkscape:version="0.92.3 (2405546, 2018-03-11)">
  <metadata
     id="metadata8">
    <rdf:RDF>
      <cc:Work
         rdf:about="">
        <dc:format>image/svg+xml</dc:format>
        <dc:type
           rdf:resource="http://purl.org/dc/dcmitype/StillImage" />
        <dc:title />
      </cc:Work>
    </rdf:RDF>
  </metadata>
  <defs
     id="defs6" />
  <sodipodi:namedview
     pagecolor="#ffffff"
     bordercolor="#666666"
     borderopacity="1"
     objecttolerance="10"
     gridtolerance="10"
     guidetolerance="10"
     inkscape:pageopacity="0"
     inkscape:pageshadow="2"
     inkscape:window-width="1853"
     inkscape:window-height="1025"
     id="namedview4"
     showgrid="false"
     inkscape:zoom="8.148301"
     inkscape:cx="0.88043185"
     inkscape:cy="33.514881"
     inkscape:window-x="67"
     inkscape:window-y="27"
     inkscape:window-maximized="1"
     inkscape:current-layer="svg2" />
  <path
     style="opacity:1;fill:#316ce6;fill-opacity:1;stroke:#0000ff;stroke-width:0.12291823;stroke-miterlimit:4;stroke-dasharray:none;stroke-dashoffset:0;stroke-opacity:1"
     d="m 37.117709,81.57136 c -1.149353,-0.05189 -2.198651,-0.127618 -2.331775,-0.16828 -0.133123,-0.04066 -1.125662,-0.160609 -2.205642,-0.266545 -1.07998,-0.105938 -2.129278,-0.243426 -2.331775,-0.30553 -0.202496,-0.06211 -0.865211,-0.195388 -1.472699,-0.296185 -1.455656,-0.241526 -3.044558,-0.593578 -4.479462,-0.992511 -0.641238,-0.178277 -1.497244,-0.41311 -1.902237,-0.52185 -0.404992,-0.10874 -0.763963,-0.234716 -0.797712,-0.279945 -0.03375,-0.04523 -0.225125,-0.122389 -0.42528,-0.171465 -0.200155,-0.04908 -0.597515,-0.195645 -0.883023,-0.325709 -0.285508,-0.130064 -0.555725,-0.23648 -0.600482,-0.23648 -0.141324,0 -1.290524,-0.528741 -2.62417,-1.207365 -3.648762,-1.856673 -5.744572,-3.89497 -6.377678,-6.202662 l -0.257339,-0.93801 V 40.882557 12.10629 l 0.257339,-0.93801 c 0.715379,-2.6075791 3.328861,-4.8604628 8.026596,-6.919117 0.605027,-0.2651365 1.251129,-0.5060914 2.4545,-0.9153717 0.337493,-0.1147855 0.724077,-0.2572264 0.859074,-0.3165352 0.134998,-0.059309 0.493968,-0.1679486 0.797713,-0.2414217 0.303744,-0.073473 0.698994,-0.1908016 0.878335,-0.2607301 1.29331,-0.5042893 6.436577,-1.462172 9.430562,-1.75634927 6.077411,-0.5971425 9.418891,-0.5969273 15.463343,9.966e-4 2.27134,0.2246829 6.25114,0.90115597 7.3635,1.25162367 0.23625,0.074433 0.7609,0.2001714 1.16589,0.2794188 0.40499,0.079248 0.79157,0.1860948 0.85907,0.2374386 0.0675,0.051344 0.42647,0.1630936 0.79772,0.2483333 0.37124,0.085239 0.73021,0.1873876 0.79771,0.226996 0.12366,0.072566 1.29997,0.5023413 2.20905,0.8070988 0.48808,0.1636226 2.5324,1.0780395 2.88403,1.2900189 0.10125,0.061036 0.51545,0.2859101 0.92044,0.4997202 1.36721,0.7217977 2.44914,1.5254907 3.63161,2.6976873 1.25935,1.248401 1.83984,2.1483268 2.06601,3.2028758 0.18948,0.883545 0.1851,58.513695 -0.005,59.397866 -0.33149,1.545657 -1.8482,3.282101 -4.25976,4.876896 -0.42664,0.282143 -0.80425,0.512986 -0.83914,0.512986 -0.0349,0 -0.43136,0.206606 -0.88107,0.459126 -0.85688,0.48115 -1.44703,0.743176 -3.27216,1.452834 -0.60748,0.236208 -1.21497,0.480493 -1.34997,0.542857 -0.135,0.06236 -0.57681,0.204552 -0.9818,0.315974 -0.40499,0.111421 -1.23339,0.339174 -1.84087,0.506115 -1.51286,0.415743 -3.07012,0.753603 -4.60219,0.998478 -0.70874,0.113279 -1.34384,0.240561 -1.41134,0.282848 -0.0675,0.04229 -0.81305,0.141216 -1.65679,0.219842 -0.84373,0.07863 -2.19677,0.220722 -3.006757,0.315772 -1.818333,0.213377 -7.261471,0.315463 -10.066854,0.188803 z M 50.399617,56.187378 c 0.19839,-0.126117 0.10646,-0.238037 -0.82192,-1.000702 -0.43874,-0.360426 -0.82532,-0.688858 -0.85907,-0.729847 -0.0337,-0.04099 -0.58601,-0.516077 -1.22725,-1.055751 -0.641239,-0.539673 -1.338911,-1.136347 -1.550382,-1.325943 -0.211471,-0.189595 -0.487602,-0.422808 -0.613625,-0.518252 -0.126023,-0.09544 -0.172043,-0.175291 -0.102268,-0.177439 0.266576,-0.0082 1.425318,-0.850765 1.98673,-1.444624 0.855255,-0.904685 0.984285,-1.092105 1.531665,-2.224855 1.16362,-2.408013 1.14885,-5.759084 -0.0361,-8.187151 -0.41702,-0.854509 -0.737,-1.298532 -1.458097,-2.023318 -0.90132,-0.905937 -1.960355,-1.615417 -2.661852,-1.783259 -0.191567,-0.04583 -0.403529,-0.125193 -0.471028,-0.176352 -0.193289,-0.146497 -1.806719,-0.36404 -2.699949,-0.36404 -0.95789,0 -2.527813,0.221258 -2.693813,0.379653 -0.06412,0.06119 -0.205505,0.111247 -0.314179,0.111247 -0.108674,0 -0.608471,0.200588 -1.110661,0.445751 -1.223322,0.597212 -2.701783,2.0813 -3.355701,3.368476 -0.811321,1.597011 -1.100109,2.976814 -1.025392,4.899246 0.0947,2.436695 0.973993,4.405041 2.640273,5.910425 1.041465,0.940901 2.97535,1.82075 4.383364,1.994275 0.66991,0.08256 0.39605,-0.160024 3.09516,2.741692 l 1.170099,1.25793 3.023524,-0.0019 c 1.662942,-9.82e-4 3.089642,-0.04391 3.170452,-0.09528 z M 26.78871,52.223139 c 0.48542,-0.07381 0.935048,-0.184264 0.999172,-0.24545 0.06412,-0.06119 0.230624,-0.111247 0.370002,-0.111247 0.407734,0 1.68453,-0.679369 2.307688,-1.227896 0.383317,-0.337407 0.7296,-0.818748 1.038135,-1.443024 0.443674,-0.897714 0.462836,-0.988129 0.459992,-2.170352 -0.0026,-1.101312 -0.03992,-1.308344 -0.347554,-1.930413 -0.189524,-0.383239 -0.574773,-0.93852 -0.856109,-1.233959 -0.842826,-0.885074 -1.313337,-1.164147 -4.141669,-2.45653 -0.717976,-0.328075 -0.994697,-0.529407 -1.212897,-0.88246 l -0.282696,-0.457412 0.242928,-0.32727 c 0.419408,-0.56502 0.718715,-0.65111 2.084314,-0.599504 0.688282,0.02601 1.323384,0.102041 1.411337,0.168957 0.08795,0.06692 0.408433,0.192715 0.712177,0.279552 0.303744,0.08684 0.759361,0.263307 1.012481,0.392156 l 0.460219,0.234271 v -2.209205 -2.209207 l -0.337494,-0.07325 c -0.185622,-0.04029 -0.447946,-0.123107 -0.582944,-0.184043 -0.363376,-0.164027 -2.181551,-0.361011 -3.332156,-0.361011 -1.262097,0 -2.75629,0.203074 -3.200982,0.43504 -0.186703,0.09739 -0.415576,0.177413 -0.508608,0.177829 -0.358656,0.0016 -1.49783,0.775205 -2.080763,1.413026 -1.502365,1.643826 -1.689294,4.315064 -0.424439,6.065286 0.667209,0.923239 2.786743,2.340442 3.500306,2.340442 0.119463,0 0.217206,0.04924 0.217206,0.10942 0,0.06018 0.148154,0.146605 0.329231,0.192053 0.181077,0.04545 0.564498,0.220507 0.852047,0.389022 0.896603,0.525444 0.983565,1.547089 0.168697,1.981896 -0.351192,0.187394 -2.233981,0.136269 -2.487065,-0.06753 -0.08334,-0.06711 -0.344814,-0.162812 -0.581059,-0.212673 -0.466119,-0.09837 -1.462013,-0.568169 -1.982545,-0.935227 -0.179167,-0.12634 -0.386265,-0.22971 -0.460219,-0.22971 -0.154998,0 -0.191883,4.383269 -0.03891,4.623785 0.05049,0.07938 0.367192,0.20825 0.703789,0.286383 0.336598,0.07813 0.722448,0.193598 0.857445,0.25659 0.65379,0.305068 3.713201,0.437239 5.130941,0.221663 z m 35.736477,-2.197572 v -2.024962 l -2.85336,-0.03294 -2.85335,-0.03294 v -6.256718 -6.256712 h -2.51587 -2.51586 v 8.346588 8.346588 l 5.36922,-0.03197 5.36922,-0.03197 z M 47.368647,17.761958 c 0.43875,-0.07603 1.46043,-0.217327 2.27042,-0.313998 1.91685,-0.228778 3.61972,-0.516453 4.33616,-0.732527 0.31506,-0.09502 0.90419,-0.254669 1.30918,-0.354775 1.36141,-0.336508 2.20826,-0.594294 2.32564,-0.707936 0.0641,-0.06208 0.19615,-0.112872 0.29339,-0.112872 0.0972,0 0.74001,-0.27302 1.42839,-0.606713 3.00427,-1.456328 4.07468,-3.05397 3.20113,-4.777847 -0.31104,-0.6138 -1.555,-1.8562131 -1.85854,-1.8562131 -0.0958,0 -0.17419,-0.042148 -0.17419,-0.093663 0,-0.1419932 -2.66064,-1.3783351 -2.96935,-1.3797927 -0.0881,-4.173e-4 -0.31956,-0.083893 -0.51439,-0.1855037 C 56.099107,6.1616903 52.606627,5.4322079 48.534537,4.8684738 48.129547,4.8124068 46.239408,4.6956455 44.334233,4.6090034 41.557599,4.4827297 40.206106,4.481359 37.522997,4.6020934 35.681992,4.6849354 33.816746,4.803236 33.378004,4.8649825 29.606398,5.3957812 27.142607,5.84945 26.72184,6.0906113 c -0.117207,0.067177 -0.29587,0.1221396 -0.39703,0.1221396 -0.181945,0 -2.229496,0.6432927 -2.703441,0.8493581 -1.690932,0.735195 -2.290194,1.0795378 -3.273146,1.8807872 -1.565406,1.2760338 -1.675628,3.0996578 -0.266146,4.4033888 0.719702,0.665705 3.125992,2.070838 3.546308,2.070838 0.04324,0 0.252639,0.07785 0.465336,0.173004 0.995969,0.445557 3.189209,1.031369 5.295722,1.414479 0.674987,0.122761 1.310089,0.255374 1.411337,0.294696 0.101248,0.03932 1.067707,0.164523 2.147687,0.278222 1.079979,0.1137 2.32257,0.248035 2.761312,0.298523 1.21677,0.140018 10.729642,0.04693 11.658868,-0.114091 z"
     id="path845"
     inkscape:connector-curvature="0" />
  <path
     style="opacity:1;fill:#316ce6;fill-opacity:1;stroke:#0000ff;stroke-width:0.12291823;stroke-miterlimit:4;stroke-dasharray:none;stroke-dashoffset:0;stroke-opacity:1"
     d="m 40.657504,47.825669 c -0.878492,-0.219359 -1.632021,-0.958858 -1.886607,-1.851481 -0.0864,-0.302944 -0.203013,-0.603272 -0.259133,-0.667396 -0.133053,-0.152029 -0.133053,-2.928368 0,-3.080397 0.05612,-0.06412 0.17273,-0.364452 0.259133,-0.667396 0.179391,-0.628976 0.581395,-1.154258 1.221036,-1.595477 0.368735,-0.25435 0.587802,-0.305644 1.310336,-0.306812 0.723296,-0.0012 0.943489,0.04962 1.324032,0.305409 0.975163,0.655471 1.476626,1.981503 1.461937,3.865837 -0.01088,1.395618 -0.18687,2.154209 -0.658955,2.840362 -0.652316,0.948107 -1.759059,1.410226 -2.771779,1.157351 z"
     id="path847"
     inkscape:connector-curvature="0" />
</svg>
