<?xml version="1.0" encoding="UTF-8" standalone="no"?>
<!-- Created with Inkscape (http://www.inkscape.org/) -->

<svg
   xmlns:dc="http://purl.org/dc/elements/1.1/"
   xmlns:cc="http://creativecommons.org/ns#"
   xmlns:rdf="http://www.w3.org/1999/02/22-rdf-syntax-ns#"
   xmlns:svg="http://www.w3.org/2000/svg"
   xmlns="http://www.w3.org/2000/svg"
   xmlns:sodipodi="http://sodipodi.sourceforge.net/DTD/sodipodi-0.dtd"
   xmlns:inkscape="http://www.inkscape.org/namespaces/inkscape"
   version="1.1"
   id="svg2"
   width="2173.6157"
   height="2157.2097"
   viewBox="0 0 2173.6158 2157.2097"
   sodipodi:docname="travis_ci2.svg"
   inkscape:version="0.92.3 (2405546, 2018-03-11)">
  <metadata
     id="metadata8">
    <rdf:RDF>
      <cc:Work
         rdf:about="">
        <dc:format>image/svg+xml</dc:format>
        <dc:type
           rdf:resource="http://purl.org/dc/dcmitype/StillImage" />
        <dc:title></dc:title>
      </cc:Work>
    </rdf:RDF>
  </metadata>
  <defs
     id="defs6">
    <clipPath
       clipPathUnits="userSpaceOnUse"
       id="clipPath819">
      <rect
         style="opacity:0.76999996;fill:#0000ff;fill-opacity:1;stroke:#0000ff;stroke-width:1.00157475;stroke-miterlimit:4;stroke-dasharray:none;stroke-dashoffset:0;stroke-opacity:1"
         id="rect821"
         width="1956.817"
         height="1978.0868"
         x="0"
         y="0" />
    </clipPath>
    <clipPath
       clipPathUnits="userSpaceOnUse"
       id="clipPath914">
      <rect
         style="opacity:0.76999996;fill:#2962ff;fill-opacity:1;stroke:#0000ff;stroke-width:1.00157475;stroke-miterlimit:4;stroke-dasharray:none;stroke-dashoffset:0;stroke-opacity:1"
         id="rect916"
         width="2172.6143"
         height="2156.2083"
         x="0.50078738"
         y="0.50078738" />
    </clipPath>
    <clipPath
       clipPathUnits="userSpaceOnUse"
       id="clipPath918">
      <rect
         style="opacity:0.76999996;fill:#2962ff;fill-opacity:1;stroke:#0000ff;stroke-width:1.00157475;stroke-miterlimit:4;stroke-dasharray:none;stroke-dashoffset:0;stroke-opacity:1"
         id="rect920"
         width="2172.6143"
         height="2156.2083"
         x="0.50078738"
         y="0.50078738" />
    </clipPath>
    <clipPath
       clipPathUnits="userSpaceOnUse"
       id="clipPath922">
      <rect
         style="opacity:0.76999996;fill:#2962ff;fill-opacity:1;stroke:#0000ff;stroke-width:1.00157475;stroke-miterlimit:4;stroke-dasharray:none;stroke-dashoffset:0;stroke-opacity:1"
         id="rect924"
         width="2172.6143"
         height="2156.2083"
         x="0.50078738"
         y="0.50078738" />
    </clipPath>
    <clipPath
       clipPathUnits="userSpaceOnUse"
       id="clipPath926">
      <rect
         style="opacity:0.76999996;fill:#2962ff;fill-opacity:1;stroke:#0000ff;stroke-width:1.00157475;stroke-miterlimit:4;stroke-dasharray:none;stroke-dashoffset:0;stroke-opacity:1"
         id="rect928"
         width="2172.6143"
         height="2156.2083"
         x="0.50078738"
         y="0.50078738" />
    </clipPath>
    <clipPath
       clipPathUnits="userSpaceOnUse"
       id="clipPath930">
      <rect
         style="opacity:0.76999996;fill:#2962ff;fill-opacity:1;stroke:#0000ff;stroke-width:1.00157475;stroke-miterlimit:4;stroke-dasharray:none;stroke-dashoffset:0;stroke-opacity:1"
         id="rect932"
         width="2172.6143"
         height="2156.2083"
         x="0.50078738"
         y="0.50078738" />
    </clipPath>
  </defs>
  <sodipodi:namedview
     pagecolor="#ffffff"
     bordercolor="#666666"
     borderopacity="1"
     objecttolerance="10"
     gridtolerance="10"
     guidetolerance="10"
     inkscape:pageopacity="0"
     inkscape:pageshadow="2"
     inkscape:window-width="1853"
     inkscape:window-height="1025"
     id="namedview4"
     showgrid="false"
     inkscape:zoom="0.42667491"
     inkscape:cx="1161.9246"
     inkscape:cy="1503.5135"
     inkscape:window-x="67"
     inkscape:window-y="27"
     inkscape:window-maximized="1"
     inkscape:current-layer="svg2" />
  <path
     style="opacity:0.76999996;fill:#2962ff;fill-opacity:1;stroke:#0000ff;stroke-width:2.6033895;stroke-miterlimit:4;stroke-dasharray:none;stroke-dashoffset:0;stroke-opacity:1"
     d="m 1095.3911,2139.774 c -43.521,-5.7404 -79.0695,-13.3825 -120.03244,-25.8041 l -38.15464,-11.5701 -56.71969,6.726 c -114.51028,13.579 -172.77959,7.8228 -238.6704,-23.5773 -71.35125,-34.0022 -117.82711,-85.2875 -229.77746,-253.5554 -54.07868,-81.2834 -73.52923,-111.7697 -71.31011,-111.7697 2.29365,0 59.36484,25.688 151.24642,68.0767 53.0719,24.4842 79.7555,35.5398 81.51987,33.7755 1.76437,-1.7644 -2.89357,-11.4185 -14.23029,-29.4938 -37.84436,-60.3391 -63.07845,-111.2931 -85.36284,-172.3693 -6.79339,-18.6192 -13.31552,-33.8179 -14.49362,-33.7749 -1.17811,0.043 -13.83884,2.3618 -28.13498,5.1533 -16.40404,3.203 -37.02021,5.0921 -55.88487,5.1206 -35.8642,0.054 -43.23591,-3.2713 -56.7541,-25.603 -31.46196,-51.9744 -69.7569,-228.2287 -60.47046,-278.3182 5.54856,-29.9281 13.15566,-37.7518 63.93899,-65.7604 22.25814,-12.276 23.43281,-13.3625 24.20041,-22.3834 0.5243,-6.162 -0.30191,-9.4811 -2.36008,-9.4811 -7.41075,0 -119.06487,72.5037 -171.29987,111.2353 -39.16617,29.0412 -59.13087,45.4047 -113.909545,93.3632 -24.999892,21.8872 -45.91598,39.3334 -46.480193,38.7693 -0.564214,-0.5643 17.264742,-29.8581 39.619904,-65.0974 67.081534,-105.7434 103.914714,-153.3305 173.480434,-224.1301 l 43.78352,-44.5601 -18.14447,-8.3633 c -22.5716,-10.4039 -28.97105,-17.0145 -40.26127,-41.5892 -18.63083,-40.5527 -32.19077,-90.1732 -39.41975,-144.25057 -9.90471,-74.09357 -1.44039,-191.15917 15.09415,-208.7594 14.69008,-15.63687 73.83243,-48.08131 121.54954,-66.6799 l 24.84226,-9.68269 12.41851,-31.59188 C 362.59232,549.61942 397.02478,480.05515 421.36927,439.97137 464.51473,368.93134 505.41442,316.5249 562.48401,259.15539 701.46744,119.44154 868.51967,37.012546 1065.4993,10.951392 c 46.7722,-6.1881388 145.8742,-6.165294 192.3479,0.04434 142.3578,19.021279 259.6508,63.377004 375.5983,142.036738 152.2319,103.27546 275.2913,261.98369 346.7127,447.15132 l 9.6237,24.95049 25.2268,9.85851 c 33.5047,13.09348 80.7063,37.12268 103.2056,52.53931 21.8108,14.94502 25.4652,21.48147 31.6746,56.65546 6.4598,36.59247 6.4593,144.55334 0,181.95075 -10.7463,62.20926 -32.6512,128.22859 -50.2448,151.43299 -7.4106,9.7739 -17.6133,15.4134 -55.5087,30.6819 l -27.2926,10.9965 -7.7979,26.9856 c -8.9422,30.9453 -10.1641,33.3344 -17.049,33.3344 -9.5592,0 -4.9902,4.7587 15.0995,15.7261 36.1097,19.7131 46.8608,28.3821 54.6392,44.0577 6.7544,13.6117 7.0827,16.0384 6.8552,50.6864 -0.2695,41.0629 -5.1506,77.7514 -18.1549,136.463 -17.1957,77.6345 -32.4695,120.4908 -47.4285,133.0779 -10.7966,9.0848 -25.9016,10.8331 -81.1706,9.3951 l -43.8839,-1.1417 -10.5906,32.6564 c -5.8249,17.9609 -16.8877,48.4373 -24.5841,67.7252 -7.6964,19.288 -13.4966,35.5657 -12.8894,36.1729 0.6072,0.6072 16.1505,-6.1376 34.5408,-14.9884 43.7438,-21.0531 138.9195,-62.8165 140.2108,-61.5251 0.5551,0.5549 -15.9156,32.9647 -36.6015,72.0217 -20.6857,39.0569 -53.0859,101.1768 -72.0001,138.0438 -18.9143,36.8672 -39.6637,74.0472 -46.1098,82.6223 -19.394,25.7999 -46.3307,45.5104 -82.1731,60.1289 -15.0177,6.1251 -171.9603,47.1888 -226.4532,59.2511 -7.0764,1.5664 -19.5874,6.9309 -27.8021,11.921 -29.5584,17.9557 -91.0291,45.7122 -128.7819,58.1499 -42.4314,13.9791 -87.2753,24.0013 -134.1507,29.9814 -38.0007,4.848 -117.6033,4.7344 -155.1749,-0.2212 z m 135.2623,-30.7557 c 58.0192,-7.2032 119.6446,-22.2268 168.8554,-41.165 l 16.8955,-6.5021 -10.3972,-1.8663 c -48.8768,-8.7732 -85.6575,-26.092 -114.8791,-54.0927 l -10.9073,-10.4515 -18.9846,3.1608 c -10.4416,1.7386 -31.2113,3.8645 -46.1549,4.7246 l -27.1702,1.5635 -14.0468,15.1723 c -19.1025,20.633 -46.8094,38.5643 -78.9377,51.087 -24.8203,9.6741 -59.6207,18.6746 -72.206,18.6746 -22.4785,0 35.2443,15.285 77.8692,20.6198 28.0441,3.5099 98.3701,3.0097 130.0637,-0.925 z m 25.6431,-130.8631 c 4.9385,-1.8269 3.676,-3.889 -14.422,-23.5573 -10.909,-11.8554 -20.7099,-20.6054 -21.78,-19.4443 -1.9496,2.1154 -20.7315,44.8292 -20.7315,47.1474 0,1.8526 50.6983,-1.8392 56.9335,-4.1458 z M 658.78734,1797.2789 c 20.68649,-6.2262 61.19117,-18.6538 90.01041,-27.6169 l 52.39859,-16.2967 12.57786,-18.4082 c 40.33536,-59.0328 92.55349,-110.097 129.73138,-126.8645 10.96001,-4.9429 17.54413,-5.809 45.31442,-5.9603 17.8702,-0.098 41.6034,0.7534 52.7406,1.8904 l 20.2494,2.0674 -8.9587,-13.7642 c -9.0457,-13.8979 -14.4641,-26.9703 -10.3687,-25.0153 1.2223,0.5835 12.1646,5.9784 24.3163,11.9891 34.3672,16.9988 59.4728,22.3121 97.3932,20.612 46.6235,-2.0903 92.672,-17.7551 127.2214,-43.2782 l 14.6928,-10.8541 -1.7546,7.2936 c -2.9651,12.3261 -11.2866,26.7662 -22.3269,38.7436 -5.799,6.2911 -9.933,11.4384 -9.1867,11.4384 0.7464,0 8.7907,-2.29 17.8763,-5.0892 39.4164,-12.143 78.8388,-20.9038 94.0646,-20.9038 22.6073,0 12.61,-6.6169 126.0832,83.4499 l 51.1026,40.5616 63.8793,6.9618 c 98.6857,10.755 140.6924,13.294 149.2579,9.0214 5.4273,-2.7072 10.6293,-11.2276 22.2828,-36.4973 26.1089,-56.6149 57.3836,-141.2894 61.2151,-165.7365 l 1.8106,-11.5528 -20.5577,14.3723 c -11.3067,7.9047 -28.7454,20.0755 -38.7527,27.0461 -10.0073,6.9705 -24.6283,17.2152 -32.4911,22.7658 -13.5301,9.5513 -15.0623,10.0093 -28.5924,8.5488 -7.8628,-0.8488 -55.235,-6.2275 -105.2714,-11.9527 -50.0365,-5.7253 -137.1779,-15.6388 -193.6476,-22.0301 -152.8726,-17.3022 -166.5848,-19.0977 -170.469,-22.3212 -1.9591,-1.626 -7.6083,-15.9948 -12.5536,-31.9307 -12.2758,-39.5577 -50.4938,-165.7558 -55.9853,-184.8664 -5.2078,-18.123 -6.9705,-19.0423 -36.5175,-19.0423 -31.8474,0 -31.2428,-0.4588 -40.564,30.7864 -37.7501,126.5405 -59.2927,194.1821 -62.9613,197.6919 -2.3901,2.2865 -18.9666,7.3743 -36.8367,11.3061 -34.17896,7.5201 -105.2562,23.2988 -182.60062,40.5362 -25.37564,5.6553 -66.89939,14.889 -92.27503,20.5193 -25.37563,5.6303 -72.45538,16.1439 -104.62168,23.3636 -32.16628,7.2197 -60.23868,13.081 -62.38311,13.025 -2.14442,-0.055 -24.3684,-14.5637 -49.38663,-32.2394 -25.01823,-17.6756 -45.89884,-31.0038 -46.40139,-29.6183 -2.16102,5.9586 26.14941,74.023 52.2189,125.5457 28.94044,57.1966 70.50408,123.5316 77.43795,123.5898 2.18731,0.018 20.90224,-5.0607 41.58875,-11.2871 z m 6.42026,-221.3942 c 41.45878,-9.3349 96.43389,-21.6009 122.16692,-27.2577 184.42138,-40.5408 253.31918,-56.1631 254.96898,-57.8129 0.858,-0.858 4.243,-10.7077 7.5223,-21.8885 3.2794,-11.1808 12.0685,-40.2133 19.5315,-64.5167 7.4628,-24.3035 18.7189,-61.4546 25.0132,-82.558 15.7186,-52.7011 18.3578,-58.7575 26.6155,-61.0769 8.893,-2.4978 80.1739,-2.5053 89.055,-0.011 8.2819,2.3276 7.7363,0.9605 30.8688,77.3622 32.8733,108.5747 41.2133,136.2561 44.4598,147.5682 2.2134,7.7121 4.8431,11.4531 8.6068,12.2439 2.9808,0.6264 43.4342,5.3542 89.8967,10.5062 81.8694,9.0782 211.1219,23.6665 313.8949,35.4283 l 50.0664,5.7298 7.1181,-5.2399 c 3.915,-2.882 42.7936,-30.1738 86.3967,-60.6486 43.6032,-30.4746 79.7883,-55.8365 80.4112,-56.3598 0.623,-0.5231 3.176,-15.2576 5.6734,-32.743 2.4975,-17.4855 9.3195,-65.1278 15.1601,-105.8717 5.8406,-40.744 11.9832,-83.7484 13.6501,-95.5654 1.8717,-13.268 2.1021,-22.3029 0.6027,-23.6229 -3.5979,-3.1672 -58.4222,-14.133 -60.4619,-12.0935 -0.9625,0.9626 -4.816,23.5842 -8.5633,50.2703 -20.8128,148.2148 -26.2666,183.8604 -28.553,186.6152 -1.3895,1.6742 -31.3248,23.2083 -66.5229,47.8534 l -63.9965,44.8093 -96.4086,-10.7539 c -53.0247,-5.9136 -137.9324,-15.4007 -188.6836,-21.0814 -50.7513,-5.6808 -94.8543,-11.4816 -98.0067,-12.8908 -4.324,-1.933 -7.4005,-8.1747 -12.5273,-25.415 -3.7377,-12.569 -9.561,-31.6255 -12.9407,-42.3475 -3.3797,-10.7221 -13.3323,-43.4733 -22.1168,-72.7804 -8.7845,-29.3069 -18.5965,-61.4343 -21.8044,-71.3938 l -5.8327,-18.1082 -27.1049,-6.1927 c -22.5968,-5.1628 -34.8867,-6.258 -73.8923,-6.585 -40.583,-0.3404 -50.863,0.4537 -77.5223,5.988 -20.1889,4.1911 -31.4292,7.7586 -32.758,10.3971 -1.1127,2.2093 -11.0606,33.8437 -22.1065,70.2989 -47.55698,156.9542 -45.34574,150.0686 -49.53996,154.2628 -1.88871,1.8887 -26.06044,8.4181 -53.71493,14.5097 -118.50847,26.1043 -152.32459,33.6135 -163.35031,36.2732 -6.43326,1.5519 -46.55691,10.4987 -89.16369,19.8821 l -77.46685,17.0605 -8.30993,-5.1402 c -4.57044,-2.827 -23.76073,-16.043 -42.64507,-29.3688 -18.88433,-13.3259 -44.996,-31.6901 -58.02596,-40.8093 -13.02993,-9.1192 -24.61076,-19.0615 -25.73516,-22.094 -1.12441,-3.0325 -2.8385,-13.1166 -3.80907,-22.4091 -2.4738,-23.6843 -30.60741,-250.7227 -31.14381,-251.3306 -0.24199,-0.2742 -9.80005,1.588 -21.2402,4.1382 -26.04346,5.8053 -43.01601,14.9768 -41.35478,22.3467 0.64533,2.8629 5.32235,39.7109 10.39339,81.8845 5.07102,42.1735 11.46321,93.6395 14.20485,114.369 2.74163,20.7293 6.31668,48.8577 7.94459,62.5074 2.90224,24.335 3.14213,24.9417 12.33486,31.1915 5.15625,3.5057 26.01331,18.0708 46.34896,32.367 20.33567,14.296 47.78853,33.5958 61.00635,42.8883 43.24895,30.4052 63.38924,44.1525 64.71078,44.1701 0.7148,0.011 35.22046,-7.6203 76.67924,-16.9552 z m -242.84244,-20.9949 c 13.47584,-2.2974 24.91977,-4.5676 25.43095,-5.0448 0.51118,-0.4774 -0.51929,-6.4931 -2.28993,-13.3682 -3.08123,-11.964 -4.43622,-13.331 -31.58135,-31.8615 -15.5991,-10.6486 -29.45226,-20.6749 -30.78479,-22.2805 -2.02414,-2.4389 -14.19172,-94.6969 -26.64661,-202.0423 -1.63667,-14.1061 -4.15083,-25.3425 -5.67023,-25.3415 -5.73348,0 -48.65609,26.8436 -52.63159,32.911 -3.51906,5.3708 -3.91529,11.5379 -2.5291,39.3637 0.90407,18.1473 3.49777,43.5223 5.76381,56.3887 9.90244,56.2258 37.54375,151.428 49.07639,169.0292 3.91682,5.9778 5.70568,6.4234 25.78488,6.4234 11.86683,0 32.60176,-1.8798 46.07757,-4.1772 z m 1559.45824,-35.4621 c 11.371,-18.493 32.758,-97.6722 42.993,-159.1693 5.1385,-30.8744 7.7158,-94.1148 4.1984,-103.0207 -1.7846,-4.5189 -9.7075,-10.8573 -23.5556,-18.8449 -11.4765,-6.6197 -22.0377,-12.0357 -23.469,-12.0357 -3.1747,0 -2.492,-4.0701 -18.5342,110.47 -7.2082,51.4661 -13.6391,96.1 -14.2909,99.1865 -0.7211,3.4149 -10.602,12.3158 -25.2384,22.7356 l -24.0533,17.1237 -4.3152,21.4526 c -2.3733,11.7988 -3.8972,21.8778 -3.3865,22.398 2.2546,2.296 45.9334,7.661 64.2746,7.8948 20.0782,0.2557 20.2096,0.2134 25.3771,-8.1906 z m -1307.51826,-34.979 c 29.30707,-6.4605 73.17018,-16.1249 97.4736,-21.4765 156.82278,-34.5323 190.13988,-42.0844 193.37894,-43.8339 3.86854,-2.0893 12.15941,-28.086 59.68732,-187.1538 5.6961,-19.0639 12.1868,-36.684 14.4237,-39.1558 4.3386,-4.794 29.5229,-11.4995 63.8074,-16.9891 19.3195,-3.0934 24.1911,-5.2807 60.5972,-27.2083 43.6169,-26.2707 82.477,-53.6138 82.477,-58.033 0,-2.0432 -32.77,-2.3608 -116.3185,-1.1272 -108.4152,1.6007 -157.91966,3.5201 -236.01144,9.1509 l -31.31686,2.2581 -36.26484,18.4322 c -52.49363,26.6809 -94.30105,51.2799 -146.93649,86.4562 -25.50083,17.0421 -47.18094,30.9857 -48.17798,30.9857 -0.99704,0 -0.0319,-2.047 2.14435,-4.5488 2.17644,-2.5018 14.83423,-20.3395 28.12846,-39.6392 13.29424,-19.2998 31.06346,-44.2816 39.48721,-55.5152 8.42372,-11.2335 14.75977,-20.9808 14.08006,-21.6604 -2.23769,-2.2377 -134.997,15.8209 -205.71446,27.9822 -24.30341,4.1795 -45.19547,7.6004 -46.42678,7.6018 -1.23131,0 -1.49385,3.9735 -0.58339,8.8266 0.91043,4.8532 6.25825,46.6693 11.88404,92.9248 19.3365,158.9864 20.51151,167.1254 24.52455,169.8747 13.92718,9.5416 77.80063,54.1517 92.06785,64.3014 13.29701,9.4596 18.81261,11.9625 23.80524,10.8027 3.57403,-0.8304 30.47674,-6.7957 59.78382,-13.2561 z M 1738.717,1446.889 c 33.7622,-23.3772 93.6726,-65.386 95.3899,-66.8867 2.4502,-2.1412 34.039,-223.2854 32.4764,-227.3574 -1.1239,-2.9291 -20.0056,-6.5472 -97.9743,-18.7742 -62.4112,-9.7873 -167.034,-22.2463 -238.2602,-28.3733 l -49.8112,-4.2849 -42.4639,13.0687 c -73.431,22.5992 -175.8654,46.284 -221.8153,51.288 -24.4939,2.6675 -24.3913,5.0935 0.3619,8.5563 34.8161,4.8705 69.3326,13.2965 74.0072,18.0664 2.3034,2.3503 10.8742,26.4973 19.0461,53.6599 8.172,27.1626 18.1061,59.9138 22.0759,72.7803 3.9699,12.8664 12.3595,40.6423 18.6436,61.7238 8.095,27.156 12.5626,38.3436 15.3248,38.376 2.1445,0.027 23.7836,2.3837 48.0871,5.2411 24.3034,2.8574 91.5602,10.5627 149.4595,17.1228 57.8993,6.5602 111.7048,12.8253 119.5676,13.9223 32.4288,4.5247 38.9878,3.5705 55.8849,-8.1291 z m 235.2363,-314.9902 c 0,-0.486 6.5708,-25.9267 14.6017,-56.5348 8.031,-30.608 15.1625,-58.1632 15.848,-61.2337 1.121,-5.0212 -0.5437,-5.9842 -16.5512,-9.5741 -52.3355,-11.73703 -127.9497,-25.34931 -198.193,-35.67928 l -34.8351,-5.12282 -31.773,20.81217 c -42.8612,28.07513 -113.175,65.83963 -146.6011,78.73733 -6.3295,2.4422 -10.8551,5.0936 -10.0568,5.8918 0.7982,0.7982 21.7677,3.6561 46.5987,6.3508 105.1588,11.4118 253.6863,34.4028 325.8741,50.443 29.1335,6.4734 35.0877,7.4762 35.0877,5.9096 z M 589.828,1092.4465 c 27.16265,-3.659 61.08346,-8.289 75.3796,-10.2889 14.29612,-2 40.614,-5.0948 58.48416,-6.8774 l 32.4912,-3.2412 23.57202,-20.9644 c 29.45696,-26.1984 31.38171,-27.7923 58.14296,-48.1469 12.06213,-9.17453 20.69468,-17.0931 19.18342,-17.59684 -5.18965,-1.72988 -84.86939,20.34614 -142.24594,39.41064 -60.27594,20.0278 -87.98958,30.536 -149.10295,56.5355 -36.16515,15.3857 -48.20353,22.4939 -32.76436,19.346 4.1103,-0.8381 29.69725,-4.5175 56.85989,-8.1765 z m -284.67439,-22.6971 c -0.0283,-1.787 -4.70267,-20.7943 -10.38751,-42.2385 -5.68482,-21.4442 -10.3404,-40.81747 -10.34572,-43.05169 -0.01,-4.32525 39.44021,-14.77066 97.31935,-25.76744 15.64623,-2.97272 28.92325,-5.88048 29.50445,-6.4617 0.58122,-0.58123 -4.03244,-2.2689 -10.25261,-3.75037 -25.21856,-6.00643 -69.47629,-21.92101 -84.93575,-30.54197 -9.04303,-5.04284 -15.98209,-9.62855 -15.42015,-10.19048 0.56194,-0.56195 9.13048,0.64412 19.04114,2.68015 72.62616,14.92022 193.38971,12.26237 404.90521,-8.91142 50.91853,-5.09723 144.3342,-12.85443 227.84782,-18.92042 57.18506,-4.15359 347.54436,-4.141 406.78996,0.0182 102.187,7.17289 239.5309,18.99184 279.4243,24.04547 93.4549,11.8387 282.7223,15.87231 334.0096,7.1183 14.2961,-2.44016 28.9171,-5.13023 32.4912,-5.97794 6.3716,-1.51128 6.397,-1.45753 1.2996,2.76076 -9.9462,8.23107 -33.9802,18.9339 -64.3723,28.66634 -16.8198,5.38622 -30.1768,10.19773 -29.6823,10.69227 0.4945,0.49453 18.3501,4.41232 39.679,8.70623 37.9459,7.63923 97.7676,21.02712 99.3726,22.23929 0.4448,0.33599 -4.3415,20.03402 -10.6363,43.77342 -6.8781,25.9393 -10.3125,43.1618 -8.6068,43.1605 1.5611,0 9.9872,-3.384 18.7248,-7.5176 15.4928,-7.3294 16.0829,-7.9893 23.8218,-26.6407 32.7078,-78.82849 47.9648,-184.46195 39.7415,-275.15641 -3.6542,-40.30123 0.3797,-34.25184 -41.7599,-62.62435 -42.7363,-28.77421 -130.1865,-70.70595 -216.3625,-103.74429 -12.4933,-4.78967 -22.2786,-9.14484 -21.7452,-9.6782 1.3785,-1.37855 75.0262,16.51659 94.6626,23.00144 9.0264,2.98093 16.9775,4.85405 17.669,4.16251 2.1673,-2.16727 -27.6942,-69.22742 -46.4825,-104.38592 C 1832.5947,378.20341 1745.5744,278.26603 1630.8962,195.62824 1534.9527,126.49084 1412.3993,74.82701 1298.8946,55.669187 1236.7662,45.182843 1203.9957,42.852668 1140.8789,44.433297 1057.2823,46.526796 991.26457,57.911899 912.14075,83.880398 719.98267,146.94681 556.22118,280.53142 444.62047,465.24912 c -26.27143,43.48352 -72.01366,140.56256 -68.08311,144.49311 0.61374,0.61375 8.50116,-1.32301 17.52755,-4.30394 19.43073,-6.41693 93.27763,-24.38644 94.63586,-23.02821 0.51861,0.5186 -12.19096,5.99918 -28.24346,12.17906 -29.44367,11.33517 -93.1867,37.92743 -100.57369,41.95724 -2.19576,1.19784 -18.61333,9.35043 -36.48349,18.11686 -38.11367,18.69715 -69.85187,37.34165 -94.03336,55.2396 l -17.35412,12.84466 -2.14061,19.81758 c -3.76095,34.81864 -2.23578,123.38483 2.70703,157.19715 5.94905,40.6957 19.40643,93.43615 31.98585,125.35487 l 10.16301,25.7874 21.98944,11.0211 c 23.23211,11.6439 28.51975,13.0988 28.43624,7.8238 z m 1012.48819,-44.3392 c 26.4932,-26.9904 70.3311,-79.183 68.2532,-81.26101 -1.5624,-1.56233 -72.3555,8.02461 -105.9538,14.34843 -58.1288,10.94098 -128.7849,29.21978 -188.449,48.75198 -29.8439,9.7699 -112.90262,40.549 -119.72217,44.3654 -2.16967,1.2142 68.70587,1.7726 157.96627,1.2445 l 161.9017,-0.9578 z m -948.67962,-2.9452 c 11.39599,-8.4937 24.59832,-18.2617 29.33844,-21.7067 4.74013,-3.445 8.18544,-6.69661 7.65622,-7.22583 -1.05364,-1.05365 -74.57422,13.43263 -76.14498,15.00343 -0.53311,0.5331 0.81333,7.3599 2.99206,15.1707 6.3546,22.7812 5.54835,21.4659 10.79539,17.6118 2.55357,-1.8757 13.96685,-10.3597 25.36287,-18.8534 z"
     id="path861"
     inkscape:connector-curvature="0"
     clip-path="url(#clipPath930)" />
  <path
     style="opacity:0.76999996;fill:#2962ff;fill-opacity:1;stroke:#0000ff;stroke-width:2.6033895;stroke-miterlimit:4;stroke-dasharray:none;stroke-dashoffset:0;stroke-opacity:1"
     d="m 1051.5843,657.11114 v -67.58171 h 22.094 22.0941 V 463.46355 337.39768 h -16.8955 -16.8954 v 27.29261 27.29261 h -63.68282 -63.68273 v -90.97536 -90.97538 h 228.73815 228.738 v 90.97538 90.97536 h -63.6827 -63.6827 v -27.29261 -27.29261 h -16.8955 -16.8954 v 126.06587 126.06588 h 22.094 22.094 v 67.58171 67.5817 h -111.7697 -111.7698 z m 187.1493,0 v -31.19156 h -22.094 -22.094 V 463.51524 301.11092 l 55.2351,-0.75604 55.235,-0.75604 -56.5347,-0.59531 -56.5347,-0.5953 v 165.05532 165.05532 h 22.094 22.0941 v 28.55239 28.55242 l -74.7298,0.73115 -74.7298,0.73112 76.0294,0.60838 76.0294,0.60836 z m -115.0188,-30.50285 c -6.7907,-0.53546 -17.9027,-0.53546 -24.6933,0 -6.7907,0.53545 -1.2347,0.97354 12.3467,0.97354 13.5812,0 19.1372,-0.43809 12.3466,-0.97354 z M 976.2047,299.55449 c 0,-33.68859 -0.95121,-53.13218 -2.5993,-53.13218 -1.65058,0 -2.59929,19.97908 -2.59929,54.73863 0,35.83053 0.89785,54.18371 2.59929,53.13216 1.59569,-0.98619 2.5993,-22.121 2.5993,-54.73861 z m 104.7091,0.80014 55.1477,-0.75579 -56.5348,-0.59531 -56.5347,-0.5953 0.5521,29.24209 0.552,29.24209 0.8351,-27.891 0.835,-27.891 z m 274.7882,0.4995 c 0,-35.83052 -0.8979,-54.18371 -2.5993,-53.13217 -1.5911,0.98334 -2.5993,21.54339 -2.5993,53.00576 0,45.22598 0.7611,54.86504 4.3322,54.86504 0.4765,0 0.8664,-24.63239 0.8664,-54.73863 z"
     id="path863"
     inkscape:connector-curvature="0"
     clip-path="url(#clipPath926)" />
  <path
     style="opacity:0.76999996;fill:#2962ff;fill-opacity:1;stroke:#0000ff;stroke-width:2.6033895;stroke-miterlimit:4;stroke-dasharray:none;stroke-dashoffset:0;stroke-opacity:1"
     d="m 460.24437,852.28465 c 5.71846,-2.5328 20.3395,-7.95036 32.49121,-12.03903 l 22.09402,-7.43394 0.10381,-70.30501 c 0.10136,-68.64104 4.93005,-127.13127 11.46705,-138.9002 1.27854,-2.30181 10.31013,-6.60082 20.07021,-9.55331 l 17.74558,-5.36819 1.7282,-15.42617 c 0.95051,-8.48442 3.04791,-30.35947 4.66091,-48.61127 6.9065,-78.15063 27.86098,-156.7444 59.90038,-224.66789 14.20143,-30.10701 20.70978,-36.05653 7.657,-6.99954 -28.79052,64.09103 -48.28092,155.99841 -51.05169,240.73539 l -1.59121,48.6632 24.43871,-6.68406 c 13.44129,-3.67622 58.85057,-16.50962 100.9095,-28.51863 42.05896,-12.00903 77.4385,-21.83461 78.62123,-21.83461 1.18274,0 6.65823,4.07252 12.16778,9.05007 l 10.01735,9.05007 1.50517,-52.58828 c 1.54006,-53.80655 9.55769,-121.11739 20.00991,-167.99025 6.94175,-31.13036 23.78115,-85.61298 34.80257,-112.60129 10.53129,-25.78811 23.4559,-50.80568 21.19384,-41.02392 -0.8265,3.57404 -5.48137,22.87381 -10.34414,42.88839 -14.39813,59.26096 -25.4984,131.06783 -30.29168,195.95485 -2.8696,38.84572 -1.58576,148.28499 1.93062,164.57332 1.01335,4.69381 6.18987,10.24266 15.60444,16.72671 15.22115,10.48322 15.47465,11.04959 17.72806,39.60605 2.02262,25.63168 9.57628,59.08086 19.51911,86.43477 12.73624,35.0389 2.97733,31.94858 89.05539,28.20101 72.1659,-3.14187 314.3416,-2.07536 381.6799,1.68089 l 27.463,1.53195 6.6869,-15.22304 c 12.8724,-29.30536 23.9755,-72.34339 26.727,-103.59909 2.4033,-27.30273 2.6376,-27.81505 17.7115,-38.73362 l 14.0009,-10.1414 3.0104,-34.04664 c 8.8293,-99.85429 -4.2349,-231.97914 -34.9454,-353.41975 -3.568,-14.10894 -5.9946,-26.14518 -5.3926,-26.74722 0.6021,-0.60204 5.8482,9.77195 11.658,23.0533 40.4972,92.57793 59.8249,184.9309 64.473,308.0677 l 1.7885,47.38382 10.0109,-9.0442 c 5.5059,-4.9743 11.0063,-9.0442 12.2229,-9.0442 1.2166,0 17.8813,4.57505 37.0326,10.16679 19.1511,5.59173 62.8927,18.03147 97.2034,27.64387 34.3107,9.61243 63.8452,18.02904 65.6323,18.70358 6.2826,2.37157 2.8361,-74.5775 -6.0821,-135.79125 -6.8137,-46.76823 -25.2343,-112.11171 -43.8615,-155.59043 -5.6985,-13.30094 -3.1341,-15.28733 3.318,-2.57023 19.7135,38.8552 43.5504,108.05507 52.2416,151.6609 7.0249,35.24517 15.8281,98.92612 15.8281,114.49778 0,6.67818 0.7129,17.34289 1.5842,23.69934 l 1.584,11.55717 17.9364,4.62056 c 10.3729,2.67208 18.9151,6.44893 20.257,8.95635 6.614,12.35835 11.7283,73.47725 11.825,141.31763 l 0.099,69.41249 5.8517,1.46865 c 10.582,2.65591 50.3289,17.53447 49.3791,18.48428 -0.5111,0.5111 -17.8258,-2.39564 -38.4772,-6.45939 -98.6768,-19.41754 -224.3802,-32.16465 -391.0523,-39.65517 -91.6088,-4.11705 -445.65129,-4.11669 -538.05435,5.7e-4 -183.6133,8.18131 -336.72373,24.55355 -418.19397,44.71783 -24.69254,6.11152 -26.89554,6.12841 -13.28922,0.10192 z m 112.76567,-35.36526 c 50.43004,-12.74833 112.63344,-24.12288 178.10014,-32.56745 21.30373,-2.74798 39.13376,-5.39601 39.62227,-5.88452 0.48852,-0.48851 -1.40166,-11.37998 -4.20039,-24.20325 -8.56364,-39.23723 -13.72807,-88.52313 -14.05779,-134.15823 -0.27001,-37.36927 -0.86411,-43.33628 -4.21328,-42.31811 -5.42829,1.65027 -53.10272,15.18307 -142.25089,40.37911 -54.593,15.42968 -76.33548,22.64949 -77.27185,25.6589 -4.01901,12.91685 -7.01062,46.87813 -8.39147,95.26154 -1.55045,54.3262 0.0371,84.37872 4.45761,84.37872 1.26947,0 13.96201,-2.94601 28.20565,-6.54671 z M 1777.703,809.8198 c 2.9913,-24.90381 1.8244,-80.66961 -2.5805,-123.32201 -2.391,-23.1517 -5.0414,-43.15577 -5.8897,-44.45353 -0.8482,-1.29772 -49.4993,-16.0186 -108.1135,-32.71305 -58.6141,-16.69446 -108.4569,-30.93127 -110.7617,-31.63739 -3.7384,-1.1453 -4.3466,4.96278 -5.6365,56.612 -1.3785,55.2019 -6.6937,101.63394 -14.8081,129.35931 -4.0825,13.94954 -3.4638,15.18657 8.3896,16.77191 100.2157,13.40369 198.0611,31.22864 220.4127,40.15364 14.2302,5.68214 17.2147,3.98911 18.9877,-10.77088 z M 861.29979,771.74421 c 13.28659,-1.22365 24.88935,-2.95673 25.7839,-3.85128 0.89457,-0.89457 -0.87638,-7.17906 -3.93544,-13.96557 -10.72028,-23.78292 -26.49405,-88.86778 -26.52574,-109.44902 -0.013,-8.6385 -1.65203,-10.75274 -18.8449,-24.31337 -10.35669,-8.16868 -23.38059,-18.6484 -28.94202,-23.28824 l -10.11168,-8.43606 1.46273,53.18011 c 1.517,55.1538 3.3055,70.6958 12.73978,110.70842 l 5.59685,23.73743 9.30954,-1.04881 c 5.12025,-0.57684 20.18039,-2.04999 33.46698,-3.27361 z m 641.14321,-3.51316 c 12.1775,-56.20955 14.6988,-75.90969 16.2061,-126.62784 l 1.581,-53.19774 -10.1336,8.4662 c -5.5734,4.65639 -18.506,14.91215 -28.7389,22.7906 l -18.6053,14.3244 -1.7478,16.11098 c -3.2031,29.52505 -11.945,67.60414 -21.1812,92.26394 -5.0248,13.41571 -8.391,25.13722 -7.4803,26.04777 0.9105,0.91056 15.3278,2.96754 32.0384,4.57105 16.7106,1.6035 31.6988,3.09163 33.3072,3.30692 1.6083,0.21522 3.7478,-3.41003 4.7544,-8.05628 z"
     id="path865"
     inkscape:connector-curvature="0"
     clip-path="url(#clipPath922)" />
  <path
     style="opacity:0.76999996;fill:#2962ff;fill-opacity:1;stroke:#0000ff;stroke-width:2.6033895;stroke-miterlimit:4;stroke-dasharray:none;stroke-dashoffset:0;stroke-opacity:1"
     d="m 1479.1686,1365.4571 c -1.4296,-0.5106 -8.2047,-1.6844 -15.0557,-2.6083 -15.8915,-2.143 -27.7614,-12.2848 -35.7571,-30.5515 -5.1401,-11.7429 -5.9875,-18.053 -6.0232,-44.8567 -0.029,-21.4768 1.3616,-36.4539 4.4638,-48.0871 13.5345,-50.7565 37.001,-76.6914 69.2312,-76.5134 18.3994,0.102 31.0602,6.2778 48.3854,23.6029 26.9926,26.9926 44.7232,77.785 41.9664,120.2207 -0.7062,10.8715 -2.1414,21.8132 -3.1894,24.315 -1.6364,3.9064 -0.3861,4.5488 8.8534,4.5488 15.2618,0 39.184,11.0755 39.184,18.1415 0,0.9569 -9.065,1.6529 -20.1446,1.5465 -11.0794,-0.1064 -33.011,1.7723 -48.7368,4.1749 -27.9231,4.2658 -77.9949,7.9179 -83.1774,6.0667 z m 22.9847,-113.3937 c 14.0261,-6.3907 16.2414,-27.1692 4.1824,-39.2282 -6.9687,-6.9687 -9.207,-7.7511 -18.5765,-6.4945 -14.9516,2.0054 -21.5871,9.4479 -21.5871,24.2126 0,9.7605 1.2857,12.9556 7.293,18.1228 7.8686,6.7682 18.5101,8.0248 28.6882,3.3873 z"
     id="path869"
     inkscape:connector-curvature="0"
     clip-path="url(#clipPath918)" />
  <path
     style="opacity:0.76999996;fill:#2962ff;fill-opacity:1;stroke:#0000ff;stroke-width:2.6033895;stroke-miterlimit:4;stroke-dasharray:none;stroke-dashoffset:0;stroke-opacity:1"
     d="m 699.54315,1376.8738 c 8.09396,-8.5243 29.34693,-20.552 36.31538,-20.552 3.13764,0 3.69928,-1.4379 2.28441,-5.8483 -7.30136,-22.7607 -8.23719,-53.3339 -2.4661,-80.5671 9.80746,-46.2805 41.70865,-83.7316 75.99304,-89.2139 33.91079,-5.4226 66.48975,27.6656 78.52685,79.7543 7.36063,31.852 8.79315,50.7726 5.34382,70.58 -3.51698,20.196 -10.41911,31.8741 -23.31653,39.4507 -8.38957,4.9284 -14.7873,5.4644 -83.16866,6.9676 -42.90828,0.9433 -77.90082,2.8574 -83.16032,4.5488 -13.72676,4.4145 -14.67746,3.6482 -6.35189,-5.1201 z M 838.20496,1269.368 c 15.14904,-7.8338 16.76861,-30.4911 2.88617,-40.3762 -10.10552,-7.1957 -21.35742,-6.6537 -31.04196,1.4953 -6.65878,5.6029 -7.99733,8.6097 -7.99733,17.964 0,9.3543 1.33855,12.3609 7.99733,17.964 9.02657,7.5954 17.46657,8.4805 28.15579,2.9529 z"
     id="path871"
     inkscape:connector-curvature="0"
     clip-path="url(#clipPath914)" />
</svg>
